<?xml version="1.0" encoding="UTF-8" standalone="no"?>
<!-- Created with Inkscape (http://www.inkscape.org/) -->

<svg
   xmlns:dc="http://purl.org/dc/elements/1.1/"
   xmlns:cc="http://creativecommons.org/ns#"
   xmlns:rdf="http://www.w3.org/1999/02/22-rdf-syntax-ns#"
   xmlns:svg="http://www.w3.org/2000/svg"
   xmlns="http://www.w3.org/2000/svg"
   xmlns:sodipodi="http://sodipodi.sourceforge.net/DTD/sodipodi-0.dtd"
   xmlns:inkscape="http://www.inkscape.org/namespaces/inkscape"
   width="228.35156"
   height="85.251823"
   id="svg2"
   version="1.1"
   inkscape:version="0.48.5 r10040"
   sodipodi:docname="New document 1">
  <defs
     id="defs4" />
  <sodipodi:namedview
     id="base"
     pagecolor="#ffffff"
     bordercolor="#666666"
     borderopacity="1.0"
     inkscape:pageopacity="0"
     inkscape:pageshadow="2"
     inkscape:zoom="2.8"
     inkscape:cx="81.38096"
     inkscape:cy="148.75553"
     inkscape:document-units="px"
     inkscape:current-layer="layer2"
     showgrid="false"
     fit-margin-top="0"
     fit-margin-left="0"
     fit-margin-right="0"
     fit-margin-bottom="0"
     inkscape:window-width="2560"
     inkscape:window-height="1377"
     inkscape:window-x="-8"
     inkscape:window-y="-8"
     inkscape:window-maximized="1" />
  <metadata
     id="metadata7">
    <rdf:RDF>
      <cc:Work
         rdf:about="">
        <dc:format>image/svg+xml</dc:format>
        <dc:type
           rdf:resource="http://purl.org/dc/dcmitype/StillImage" />
        <dc:title></dc:title>
      </cc:Work>
    </rdf:RDF>
  </metadata>
  <g
     inkscape:groupmode="layer"
     id="layer2"
     inkscape:label="svg"
     transform="translate(-249.91666,-298.25681)">
    <path
       style="fill:#ffffff;fill-opacity:1;stroke:none"
       d="m 290.35714,322.36218 44.64286,0 c 25.89286,-0.80357 45.44643,-13.30357 66.07143,-11.78571 20.44643,0.17857 31.33928,12.76785 36.78571,14.28571 1.25,0.17857 3.83929,-3.39285 3.57143,-4.28571 -1.60714,-1.875 -12.14285,-13.30357 -37.85714,-16.42857 -21.69643,-0.53571 -43.30357,9.99999 -68.48214,12.14285 l -44.73214,0 z"
       id="path3000"
       inkscape:connector-curvature="0"
       sodipodi:nodetypes="ccccccccc" />
    <path
       style="fill:#ffffff;fill-opacity:1;stroke:none"
       d="m 408.40625,322.53125 -22.96875,0.0937 c -13.83929,0.98214 -37.66071,11.69196 -44,11.78125 l -50.90625,0.0937 0,7.0625 51.0625,0 c 25.98214,13.75 38.04018,12.41964 53.21875,13.3125 -13.92857,6.60714 -13.64732,14.04018 -49.71875,22.34375 -1.29464,0.58036 -13.08036,0.64732 -14.375,0.15625 -10.17857,-2.14286 -27.33482,-7.42411 -32.15625,-12.78125 0,0 8.48214,-0.26339 6.875,-5.53125 0,0 0.53571,-5.98661 -6.875,-5.71875 0,0 -6.67411,-1.24107 -7.03125,7.0625 -0.35714,1.96429 -2.24554,16.32143 34.09375,22.75 1.875,0.40179 26.9375,0.50893 29.4375,0.0625 45.44643,-8.21429 40.21429,-23.34821 44.5,-22.8125 l 0,22.03125 4,0 c 4.375,-8.125 8.49554,-12.04018 8.40625,-15.34375 0.11341,-4.31394 -3.22768,-2.77679 -3.40625,-13.3125 14.19643,0.26786 28.41518,-3.02679 37.96875,-2.3125 l 0,-2.9375 -2.96875,0 c 0,0 -1.50893,-2.31697 -8.5625,-5.53125 -10.35714,-12.05357 -15.96875,-19.39732 -26.59375,-20.46875 z M 384.8125,329.5 c -9.91071,9.82143 1.78125,20.1875 1.78125,20.1875 -12.5,-4.91072 -19.97768,-4.03125 -38.90625,-10.90625 15.71428,-4.46429 37.125,-9.28125 37.125,-9.28125 z m 24.21875,0.53125 c 8.48214,-0.17857 11.16071,9.9241 20.625,15.28125 -14.55358,-1.78572 -19.12946,3.58036 -21.71875,2.6875 6.78572,-5.08928 3.41517,-16.36161 1.09375,-17.96875 z"
       id="path3770"
       inkscape:connector-curvature="0"
       sodipodi:nodetypes="cccccccccccccccccccccccccccccccccc" />
    <rect
       style="fill:#00aad4;fill-opacity:1;stroke:none"
       id="rect3789"
       width="151.96429"
       height="1.875"
       x="292.5"
       y="347.45148" />
  </g>
  <g
     inkscape:groupmode="layer"
     id="layer4"
     inkscape:label="text"
     transform="translate(-249.91666,-298.25681)">
    <text
       xml:space="preserve"
       style="font-size:48px;font-style:normal;font-variant:normal;font-weight:normal;font-stretch:normal;text-align:start;line-height:125%;letter-spacing:0px;word-spacing:0px;writing-mode:lr-tb;text-anchor:start;fill:#ffd42a;fill-opacity:1;stroke:none;font-family:Adobe Devanagari;-inkscape-font-specification:Adobe Devanagari"
       x="249.00259"
       y="329.85056"
       id="text3781"
       sodipodi:linespacing="125%"><tspan
         sodipodi:role="line"
         id="tspan3783"
         x="249.00259"
         y="329.85056">Villa Khéops</tspan></text>
    <text
       xml:space="preserve"
       style="font-size:20px;font-style:normal;font-variant:normal;font-weight:normal;font-stretch:normal;text-align:start;line-height:125%;letter-spacing:0px;word-spacing:0px;writing-mode:lr-tb;text-anchor:start;fill:#00aad4;fill-opacity:1;stroke:none;font-family:Adobe Garamond Pro;-inkscape-font-specification:Adobe Garamond Pro"
       x="269.45819"
       y="373.53967"
       id="text3785"
       sodipodi:linespacing="125%"><tspan
         sodipodi:role="line"
         id="tspan3787"
         x="269.45819"
         y="373.53967">CHAMBRES D'HÔTES</tspan></text>
  </g>
</svg>
